<svg width="64" height="64" viewBox="0 0 64 64" fill="none" xmlns="http://www.w3.org/2000/svg">
<circle cx="32" cy="32" r="30.5" fill="black" stroke="white" stroke-width="3"/>
<path d="M10.9973 48.5805L52.9971 48.498" stroke="white" stroke-width="3"/>
<path d="M31.4639 13.68C35.1972 13.68 38.1439 14.7733 40.3039 16.96C42.4639 19.12 43.5439 22.2267 43.5439 26.28V42H39.5439V34.28H23.3839V42H19.4639V26.28C19.4639 22.2267 20.5439 19.12 22.7039 16.96C24.8639 14.7733 27.7839 13.68 31.4639 13.68ZM39.5439 30.8V25.92C39.5439 23.0667 38.8239 20.9067 37.3839 19.44C35.9706 17.9733 33.9972 17.24 31.4639 17.24C28.9306 17.24 26.9439 17.9733 25.5039 19.44C24.0906 20.9067 23.3839 23.0667 23.3839 25.92V30.8H39.5439Z" fill="white"/>
</svg>
